P3
3 3
9
1 2 3 1 2 3 1 2 3
3 2 1 3 2 1 3 2 1 
7 8 9 7 8 9 7 8 9